<?xml version="1.0" encoding="UTF-8" standalone="no"?>
<!DOCTYPE svg PUBLIC "-//W3C//DTD SVG 1.1//EN"
 "http://www.w3.org/Graphics/SVG/1.1/DTD/svg11.dtd">
<!-- Generated by graphviz version 2.38.0 (20140413.2041)
 -->
<!-- Title: G Pages: 1 -->
<svg width="282pt" height="410pt"
 viewBox="0.00 0.00 282.00 410.00" xmlns="http://www.w3.org/2000/svg" xmlns:xlink="http://www.w3.org/1999/xlink">
<g id="graph0" class="graph" transform="scale(1 1) rotate(0) translate(4 406)">
<title>G</title>
<polygon fill="white" stroke="none" points="-4,4 -4,-406 278,-406 278,4 -4,4"/>
<!-- 1254761170256 -->
<g id="node1" class="node"><title>1254761170256</title>
<polygon fill="none" stroke="black" points="2,-365.5 2,-401.5 128,-401.5 128,-365.5 2,-365.5"/>
<text text-anchor="middle" x="65" y="-379.8" font-family="Times New Roman,serif" font-size="14.00">input_1: InputLayer</text>
</g>
<!-- 1254761171656 -->
<g id="node3" class="node"><title>1254761171656</title>
<polygon fill="none" stroke="black" points="55.5,-292.5 55.5,-328.5 218.5,-328.5 218.5,-292.5 55.5,-292.5"/>
<text text-anchor="middle" x="137" y="-306.8" font-family="Times New Roman,serif" font-size="14.00">embedding_1: Embedding</text>
</g>
<!-- 1254761170256&#45;&gt;1254761171656 -->
<g id="edge1" class="edge"><title>1254761170256&#45;&gt;1254761171656</title>
<path fill="none" stroke="black" d="M82.4292,-365.313C91.45,-356.417 102.613,-345.409 112.488,-335.672"/>
<polygon fill="black" stroke="black" points="115.068,-338.042 119.731,-328.529 110.153,-333.058 115.068,-338.042"/>
</g>
<!-- 1254761170144 -->
<g id="node2" class="node"><title>1254761170144</title>
<polygon fill="none" stroke="black" points="146,-365.5 146,-401.5 272,-401.5 272,-365.5 146,-365.5"/>
<text text-anchor="middle" x="209" y="-379.8" font-family="Times New Roman,serif" font-size="14.00">input_2: InputLayer</text>
</g>
<!-- 1254761170144&#45;&gt;1254761171656 -->
<g id="edge2" class="edge"><title>1254761170144&#45;&gt;1254761171656</title>
<path fill="none" stroke="black" d="M191.571,-365.313C182.55,-356.417 171.387,-345.409 161.512,-335.672"/>
<polygon fill="black" stroke="black" points="163.847,-333.058 154.269,-328.529 158.932,-338.042 163.847,-333.058"/>
</g>
<!-- 1254761171096 -->
<g id="node4" class="node"><title>1254761171096</title>
<polygon fill="none" stroke="black" points="0,-219.5 0,-255.5 128,-255.5 128,-219.5 0,-219.5"/>
<text text-anchor="middle" x="64" y="-233.8" font-family="Times New Roman,serif" font-size="14.00">reshape_1: Reshape</text>
</g>
<!-- 1254761171656&#45;&gt;1254761171096 -->
<g id="edge3" class="edge"><title>1254761171656&#45;&gt;1254761171096</title>
<path fill="none" stroke="black" d="M119.329,-292.313C110.183,-283.417 98.8646,-272.409 88.8526,-262.672"/>
<polygon fill="black" stroke="black" points="91.1174,-259.992 81.5085,-255.529 86.2369,-265.01 91.1174,-259.992"/>
</g>
<!-- 1254761170984 -->
<g id="node5" class="node"><title>1254761170984</title>
<polygon fill="none" stroke="black" points="146,-219.5 146,-255.5 274,-255.5 274,-219.5 146,-219.5"/>
<text text-anchor="middle" x="210" y="-233.8" font-family="Times New Roman,serif" font-size="14.00">reshape_2: Reshape</text>
</g>
<!-- 1254761171656&#45;&gt;1254761170984 -->
<g id="edge4" class="edge"><title>1254761171656&#45;&gt;1254761170984</title>
<path fill="none" stroke="black" d="M154.671,-292.313C163.817,-283.417 175.135,-272.409 185.147,-262.672"/>
<polygon fill="black" stroke="black" points="187.763,-265.01 192.491,-255.529 182.883,-259.992 187.763,-265.01"/>
</g>
<!-- 1255565510472 -->
<g id="node6" class="node"><title>1255565510472</title>
<polygon fill="none" stroke="black" points="98.5,-146.5 98.5,-182.5 175.5,-182.5 175.5,-146.5 98.5,-146.5"/>
<text text-anchor="middle" x="137" y="-160.8" font-family="Times New Roman,serif" font-size="14.00">dot_2: Dot</text>
</g>
<!-- 1254761171096&#45;&gt;1255565510472 -->
<g id="edge5" class="edge"><title>1254761171096&#45;&gt;1255565510472</title>
<path fill="none" stroke="black" d="M81.6713,-219.313C90.8173,-210.417 102.135,-199.409 112.147,-189.672"/>
<polygon fill="black" stroke="black" points="114.763,-192.01 119.491,-182.529 109.883,-186.992 114.763,-192.01"/>
</g>
<!-- 1254761170984&#45;&gt;1255565510472 -->
<g id="edge6" class="edge"><title>1254761170984&#45;&gt;1255565510472</title>
<path fill="none" stroke="black" d="M192.329,-219.313C183.183,-210.417 171.865,-199.409 161.853,-189.672"/>
<polygon fill="black" stroke="black" points="164.117,-186.992 154.509,-182.529 159.237,-192.01 164.117,-186.992"/>
</g>
<!-- 1254761172048 -->
<g id="node7" class="node"><title>1254761172048</title>
<polygon fill="none" stroke="black" points="73,-73.5 73,-109.5 201,-109.5 201,-73.5 73,-73.5"/>
<text text-anchor="middle" x="137" y="-87.8" font-family="Times New Roman,serif" font-size="14.00">reshape_3: Reshape</text>
</g>
<!-- 1255565510472&#45;&gt;1254761172048 -->
<g id="edge7" class="edge"><title>1255565510472&#45;&gt;1254761172048</title>
<path fill="none" stroke="black" d="M137,-146.313C137,-138.289 137,-128.547 137,-119.569"/>
<polygon fill="black" stroke="black" points="140.5,-119.529 137,-109.529 133.5,-119.529 140.5,-119.529"/>
</g>
<!-- 1254761171208 -->
<g id="node8" class="node"><title>1254761171208</title>
<polygon fill="none" stroke="black" points="85,-0.5 85,-36.5 189,-36.5 189,-0.5 85,-0.5"/>
<text text-anchor="middle" x="137" y="-14.8" font-family="Times New Roman,serif" font-size="14.00">dense_1: Dense</text>
</g>
<!-- 1254761172048&#45;&gt;1254761171208 -->
<g id="edge8" class="edge"><title>1254761172048&#45;&gt;1254761171208</title>
<path fill="none" stroke="black" d="M137,-73.3129C137,-65.2895 137,-55.5475 137,-46.5691"/>
<polygon fill="black" stroke="black" points="140.5,-46.5288 137,-36.5288 133.5,-46.5289 140.5,-46.5288"/>
</g>
</g>
</svg>
